[center]
[url="http://imageshack.us/photo/my-images/705/spideybanner.jpg/"][img]http://img705.imageshack.us/img705/701/spideybanner.jpg[/img][/url]
-=-=-=-=-=-=-=-=-=-=-=-=-=-=-=-
[b]No. EP# Episode title Director(s) Writer(s) U.S. Original airdate Prod. code 
=============================================================================[/b]
2 2 "Great Responsibility" TBA Paul Dini April 1, 2012 102 
h**p://www.imdb.com/title/tt1722512/
Spoken Language: English
-=-=-=-=-=-=-=-=-=-=-=-=-=-=-=-
File info
----------
Format                           : Matroska
File size                        : 692 MiB
Duration                         : 22mn 8s
Overall bit rate                 : 4 372 Kbps
Encoded date                     : UTC 2012-04-03 06:13:35
Writing application              : mkvmerge v5.4.0 ('Piper') built on Mar 10 2012 13:34:39
Writing library                  : libebml v1.2.3 + libmatroska v1.3.0

Video
ID                               : 1
Format                           : AVC
Format/Info                      : Advanced Video Codec
Format profile                   : High@L3.1
Format settings, CABAC           : No
Format settings, ReFrames        : 2 frames
Muxing mode                      : Header stripping
Codec ID                         : V_MPEG4/ISO/AVC
Duration                         : 22mn 8s
Bit rate                         : 3 901 Kbps
Width                            : 1 280 pixels
Height                           : 720 pixels
Display aspect ratio             : 16:9
Frame rate                       : 23.976 fps
Color space                      : YUV
Chroma subsampling               : 4:2:0
Bit depth                        : 8 bits
Scan type                        : Progressive
Bits/(Pixel*Frame)               : 0.177
Stream size                      : 618 MiB (89%)
Language                         : English
Color primaries                  : BT.709-5, BT.1361, IEC 61966-2-4, SMPTE RP177
Transfer characteristics         : BT.709-5, BT.1361
Matrix coefficients              : BT.709-5, BT.1361, IEC 61966-2-4 709, SMPTE RP177

Audio
ID                               : 2
Format                           : AC-3
Format/Info                      : Audio Coding 3
Mode extension                   : CM (complete main)
Muxing mode                      : Header stripping
Codec ID                         : A_AC3
Duration                         : 22mn 8s
Bit rate mode                    : Constant
Bit rate                         : 384 Kbps
Channel(s)                       : 6 channels
Channel positions                : Front: L C R, Side: L R, LFE
Sampling rate                    : 48.0 KHz
Bit depth                        : 16 bits
Compression mode                 : Lossy
Stream size                      : 60.8 MiB (9%)
Language                         : English
Format: mkv
-=-=-=-=-=-=-=-=-=-=-=-=-=-=-=-
Screenshots
-----------
[URL=http://imageshack.us/photo/my-images/696/ultimatespidermans01e02.jpg/][IMG]http://img696.imageshack.us/img696/6995/ultimatespidermans01e02.jpg[/IMG][/URL]
[URL=http://imageshack.us/photo/my-images/196/ultimatespidermans01e02.jpg/][IMG]http://img196.imageshack.us/img196/6995/ultimatespidermans01e02.jpg[/IMG][/URL]
-=-=-=-=-=-=-=-=-=-=-=-=-=-=-=-
Hash:
-----
E398F1CCBCCE89BDF7A398692E8BDCA32E8A59B4
-=-=-=-=-=-=-=-=-=-=-=-=-=-=-=-
[/center]